<svg xmlns="http://www.w3.org/2000/svg" viewBox="0 0 693.11 532.51"><defs><style>.cls-1,.cls-2{fill:none;stroke:#000;stroke-miterlimit:10;stroke-width:5px;}.cls-2{fill-rule:evenodd;}</style></defs><g id="Layer_1" data-name="Layer 1"><path class="cls-1" d="M813.52,559.73l-292-1c6,23,5,22,5,22h283Z" transform="translate(-380.11 -50.73)"/><path d="M524.3,581l.65,1.35.23.3a1.11,1.11,0,0,0,.49.31.69.69,0,0,0,.37.1,1.11,1.11,0,0,0,.6,0l.36-.16.3-.23a1.14,1.14,0,0,0,.31-.48,1.06,1.06,0,0,0,.13-.58,4.53,4.53,0,0,0-.08-.74,2,2,0,0,0-.09-.35,3.57,3.57,0,0,0-.48-1,1,1,0,0,0-.38-.42,1.06,1.06,0,0,0-.51-.27A1.66,1.66,0,0,0,525,579l-.3.23a1.47,1.47,0,0,0-.39.67l-.05.39a1.54,1.54,0,0,0,.2.76,2.09,2.09,0,0,1,.26.46l-.15-.36a2.7,2.7,0,0,1,.17.6l-.06-.39a2,2,0,0,1,0,.25l2.8-.76-.65-1.35a1.31,1.31,0,0,0-.39-.42,1.26,1.26,0,0,0-.51-.27,1.11,1.11,0,0,0-.6,0,1,1,0,0,0-.56.17l-.3.24a1.59,1.59,0,0,0-.39.66l0,.4a1.48,1.48,0,0,0,.21.76Z" transform="translate(-380.11 -50.73)"/><path d="M524.39,577.79a9.11,9.11,0,0,0,.52,2.31,9.28,9.28,0,0,0,1.1,2.09,1.62,1.62,0,0,0,.89.69,1.5,1.5,0,0,0,1.85-1,1.51,1.51,0,0,0-.15-1.16,7.39,7.39,0,0,1-.87-1.52l.15.36a8.11,8.11,0,0,1-.52-1.93l0,.4c0-.07,0-.13,0-.19a1.66,1.66,0,0,0-.44-1.06,1.52,1.52,0,0,0-1.06-.44,1.54,1.54,0,0,0-1.06.44,1.46,1.46,0,0,0-.44,1.06Z" transform="translate(-380.11 -50.73)"/><path d="M528.64,580.4l-1.21-1.69a1.18,1.18,0,0,0-.38-.42,1.26,1.26,0,0,0-.51-.27,1.11,1.11,0,0,0-.6,0,1,1,0,0,0-.56.17,1.55,1.55,0,0,0-.69.9l-.05.4a1.57,1.57,0,0,0,.2.76l1.21,1.69a1.18,1.18,0,0,0,.38.42,1.26,1.26,0,0,0,.51.27,1.73,1.73,0,0,0,1.16-.16,1.5,1.5,0,0,0,.69-.89l.05-.4a1.57,1.57,0,0,0-.2-.76Z" transform="translate(-380.11 -50.73)"/></g><g id="Layer_2" data-name="Layer 2"><path class="cls-2" d="M545.52,325l1.44-.21M467,344c-11.46,4.35-25.23,10.28-31.82,21.29-12.48,20.81,23.7,35.37,37.5,40.55,24.38,9.15,50.27,13.4,76,17.06m0,0c35,5,75.84,7.86,119.43,7.86,46,0,88.93-3.19,125.2-8.71m0,0c11.94-1.74,23.86-3.66,35.66-6.18,20.68-4.42,41.26-10.78,59.87-21,13.81-7.58,20.43-25.7,7.89-37.61M892,353.53c-7.32-5-15.76-8-23.94-11.23m-6.23-2.22c-1.06-.35-2.12-.69-3.19-1m-426.1,36.67c0,101.15,42.05,183,94,183m282.53.52c52,0,94-81.85,94-183m-54.68,34.14c1.17-5.82,2.16-11.67,3.07-17.53m5.41-35.19c-1.62,9.22-2.91,18.48-4.28,27.74m6.84-43.28c1.61-7.9,2.61-15.9,4.61-23.9,14-83,23-163,38.5-243.5a17.06,17.06,0,0,0-4.85,2.41,6.84,6.84,0,0,0,4.85-2.41c-.5.5-2.5.5-3.5.5-20,9-43,11-63,4-16-7-30-17-46-24-12-1-23,4-33,12-33,23-72,12-106-1-11-5-21-9-33-11-6-1-11-2-17-2a66,66,0,0,1-14,1c-41,5-64,39-85,72-3,5-10,10-15,6-4-5-3-13-6-19-5-9-17-10-26-7-22,9-40,20-60,34-4,3-8,7-12,10-1,1,0,4,1,6,34,81,70,159,105,239,1,3,1,7,3,10,2,2,2,5,3.94,7.42m313.09,7.07,193.47-247-12-9L800.82,420.91m21.37-3.69,247.48-192.84-9.47-11.63L813.92,416.39m-23.4-91.56c.5-76.6.5-153.6.5-230.6-82-3-163,0-245-1-3,110,0,221-.5,331.14m245-99.54c-3.5,33.4,2.5,66.4.71,99.15" transform="translate(-380.11 -50.73)"/></g></svg>